<?xml version="1.0" encoding="UTF-8"?>
<!DOCTYPE svg PUBLIC "-//W3C//DTD SVG 1.1//EN" "http://www.w3.org/Graphics/SVG/1.1/DTD/svg11.dtd">
<!-- Creator: CorelDRAW 2021.5 -->
<svg xmlns="http://www.w3.org/2000/svg" xml:space="preserve" width="101.6mm" height="101.6mm" version="1.1" style="shape-rendering:geometricPrecision; text-rendering:geometricPrecision; image-rendering:optimizeQuality; fill-rule:evenodd; clip-rule:evenodd"
viewBox="0 0 10160 10160"
 xmlns:xlink="http://www.w3.org/1999/xlink"
 xmlns:xodm="http://www.corel.com/coreldraw/odm/2003">
 <defs>
  <style type="text/css">
   <![CDATA[
    .fil0 {fill:#34519D}
    .fil1 {fill:#34519D;fill-rule:nonzero}
   ]]>
  </style>
 </defs>
 <g id="Layer_x0020_1">
  <metadata id="CorelCorpID_0Corel-Layer"/>
  <g id="logo.cdr">
   <rect class="fil0" transform="matrix(6.97691E-15 -0.444785 0.756567 3.38314E-14 771.991 6310.67)" width="431.8" height="3649.13"/>
   <polygon class="fil0" points="973.47,6305.48 973.47,5287.33 771.99,5414.83 771.99,6305.48 "/>
   <polygon class="fil0" points="1283.86,5090.9 1283.86,6305.48 1485.34,6305.48 1485.34,4963.39 "/>
   <polygon class="fil0" points="1795.73,4766.96 1795.73,6305.48 1997.21,6305.48 1997.21,4639.46 "/>
   <polygon class="fil0" points="2307.6,4443.03 2307.6,6305.48 2509.08,6305.48 2509.08,4315.52 "/>
   <polygon class="fil0" points="2819.46,4119.09 2819.46,6305.48 3020.94,6305.48 3020.94,3991.59 "/>
   <polygon class="fil0" points="3331.33,3795.16 3331.33,6305.48 3532.81,6305.48 3532.81,3667.65 "/>
   <polygon class="fil0" points="3520.37,3317.75 3369.12,3529.46 3217.87,3741.19 3108.52,3591.92 2999.16,3442.65 3259.77,3380.19 "/>
   <polygon class="fil0" points="3194.42,3658.47 3147.32,3457.5 762,4976.05 762,5207.01 "/>
  </g>
  <path class="fil1" d="M3956.76 4635.62l317.8 0c61.99,0 107.79,-12.91 137.9,-38.46 30.36,-25.81 45.29,-62.25 45.29,-109.06l0 -2.27c0,-31.63 -5.82,-58.7 -17.71,-81.48 -11.89,-22.77 -30.11,-40.23 -54.91,-52.37 -24.79,-11.89 -55.41,-17.97 -91.85,-17.97l-336.52 0 0 -166.23 336.52 0c48.84,0 86.29,-11.9 111.84,-35.43 25.81,-23.78 38.46,-58.19 38.46,-103.23l0 0c0,-44.28 -13.41,-78.19 -40.74,-100.96 -27.07,-23.02 -67.05,-34.66 -119.93,-34.66l-326.15 0 0 -167.51 343.1 0c69.59,0 128.54,11.64 176.87,34.92 48.07,23.28 84.51,56.68 108.8,100.45 24.54,43.78 36.69,95.9 36.69,156.88l0 0c0,39.47 -7.59,75.4 -22.78,107.79 -15.43,32.38 -38.46,59.46 -69.07,81.22 -30.62,21.76 -67.81,36.43 -111.84,44.28 45.29,6.58 84.51,21.5 117.41,45.03 32.89,23.28 57.94,53.39 74.89,89.58 16.95,36.43 25.56,76.92 25.56,121.95l0 2.28c0,59.71 -12.91,111.84 -38.46,156.12 -25.81,44.02 -63.01,78.18 -112.09,101.71 -48.84,23.79 -106.53,35.68 -173.33,35.68l-355.75 0 0 -168.26zm-89.06 -909.63l177.11 0 0 1077.89 -177.11 0 0 -1077.89z"/>
  <path id="_1" class="fil1" d="M5091.15 4815.01c-72.61,0 -134.6,-13.41 -185.97,-40.48 -51.62,-26.82 -90.83,-66.04 -117.91,-117.91 -27.32,-51.62 -40.74,-113.61 -40.74,-186.23l0 -86.78c0,-76.17 12.91,-141.19 38.72,-195.09 26.06,-53.89 63.76,-94.88 113.61,-122.97 49.59,-28.08 109.3,-42.25 178.88,-42.25 65.79,0 121.96,16.44 168.77,49.34 46.56,32.89 82.24,80.46 106.78,142.7 24.29,62.25 36.69,137.4 36.69,225.2l0 50.6 -522.75 0 0 -129.8 358.03 0 -0.76 -8.86c-4.81,-53.38 -19.99,-94.88 -45.04,-124.48 -25.3,-29.86 -59.21,-44.54 -101.72,-44.54 -52.88,0 -93.87,16.7 -122.97,50.1 -29.09,33.15 -43.77,80.46 -43.77,141.95l0 97.67c0,57.94 15.69,102.47 47.06,133.85 31.38,31.37 75.66,47.06 133.09,47.06 29.1,0 57.95,-5.31 86.29,-16.19 28.34,-10.88 54.14,-26.57 76.66,-46.81l0 0 115.64 109.05 0 0c-38.97,36.44 -82.74,64.77 -131.58,84.76 -48.58,19.99 -97.67,30.11 -147.01,30.11z"/>
  <path id="_2" class="fil1" d="M5801.73 4815.01c-45.55,0 -89.07,-4.3 -130.82,-12.9 -42,-8.86 -80.97,-21.51 -117.15,-38.21 -36.43,-16.95 -69.07,-37.45 -98.43,-61.48l0 0 107.54 -133.6 0 0c39.47,27.83 79.7,48.83 120.44,63 40.74,14.43 80.21,21.51 118.42,21.51 53.64,0 94.63,-7.34 122.46,-21.76 28.09,-14.68 42,-35.93 42,-64.27 0,-20.75 -6.83,-36.43 -20.75,-47.06 -13.91,-10.63 -31.37,-17.71 -52.37,-21.76 -21,-4.05 -50.35,-7.59 -88.56,-11.13 -6.33,-0.51 -12.91,-1.02 -19.48,-1.52 -6.84,-0.51 -13.67,-1.27 -20.5,-2.28 -2.02,0 -4.05,0 -5.82,-0.25 -2.02,-0.26 -4.05,-0.51 -6.07,-0.51 -53.9,-5.82 -97.92,-14.17 -132.59,-24.8 -34.66,-10.62 -63.76,-30.86 -87.04,-60.97 -23.53,-30.37 -35.42,-73.38 -35.42,-129.81 0,-52.88 11.89,-97.41 35.42,-133.85 23.28,-36.18 57.95,-63.76 103.24,-82.23 45.54,-18.47 101.71,-27.83 168.26,-27.83 39.72,0 78.18,3.79 115.63,11.38 37.7,7.85 73.63,18.98 108.04,33.4 34.16,14.68 66.55,32.9 96.66,54.66l0 0 -106.02 128.79 0 0c-36.18,-21.76 -72.62,-38.21 -109.31,-49.6 -36.94,-11.38 -72.61,-16.95 -107.02,-16.95 -46.56,0 -81.99,6.58 -106.02,19.99 -24.29,13.41 -36.44,33.15 -36.44,59.21 0,16.95 6.58,29.6 19.99,38.2 13.41,8.61 30.11,14.68 50.35,18.22 20.24,3.54 49.34,6.58 86.79,9.62 4.05,0.5 7.84,0.76 11.64,1.01 3.54,0.25 7.34,0.76 11.39,1.26 2.02,0.51 4.04,0.76 5.82,0.76 2.02,0 3.79,0.26 5.31,0.76 56.68,4.81 104.25,12.65 141.95,23.53 37.7,10.88 69.58,32.64 95.64,65.03 25.81,32.39 38.97,79.7 38.97,141.95 0,54.4 -12.4,99.94 -37.2,137.14 -24.54,36.94 -61.23,65.28 -109.56,84.51 -48.58,19.23 -108.29,28.84 -179.39,28.84z"/>
  <path id="_3" class="fil1" d="M6449.04 4807.68c-64.77,0 -112.34,-17.21 -142.45,-51.62 -30.11,-34.41 -45.04,-85.02 -45.04,-152.32l0 -793.24 177.12 0 0 768.69c0,18.98 3.54,33.4 11.13,43.52 7.34,10.13 18.22,15.19 32.64,15.19l61.49 0 0 169.78 -94.89 0zm-266.94 -773.25l361.83 0 0 154.85 -361.83 0 0 -154.85z"/>
  <path id="_4" class="fil1" d="M3956.76 6122.69l317.8 0c61.99,0 107.79,-12.91 137.9,-38.46 30.36,-25.81 45.29,-62.25 45.29,-109.06l0 -2.27c0,-31.63 -5.82,-58.7 -17.71,-81.48 -11.89,-22.77 -30.11,-40.23 -54.91,-52.37 -24.79,-11.89 -55.41,-17.97 -91.85,-17.97l-336.52 0 0 -166.23 336.52 0c48.84,0 86.29,-11.9 111.84,-35.43 25.81,-23.78 38.46,-58.19 38.46,-103.23l0 0c0,-44.28 -13.41,-78.19 -40.74,-100.96 -27.07,-23.02 -67.05,-34.66 -119.93,-34.66l-326.15 0 0 -167.51 343.1 0c69.59,0 128.54,11.64 176.87,34.92 48.07,23.28 84.51,56.68 108.8,100.45 24.54,43.78 36.69,95.9 36.69,156.88l0 0c0,39.47 -7.59,75.4 -22.78,107.79 -15.43,32.38 -38.46,59.46 -69.07,81.22 -30.62,21.76 -67.81,36.43 -111.84,44.28 45.29,6.58 84.51,21.5 117.41,45.03 32.89,23.28 57.94,53.39 74.89,89.58 16.95,36.43 25.56,76.92 25.56,121.95l0 2.28c0,59.71 -12.91,111.84 -38.46,156.12 -25.81,44.02 -63.01,78.18 -112.09,101.71 -48.84,23.79 -106.53,35.68 -173.33,35.68l-355.75 0 0 -168.26zm-89.06 -909.63l177.11 0 0 1077.89 -177.11 0 0 -1077.89z"/>
  <path id="_5" class="fil1" d="M5221.46 5521.5l176.61 0 0 769.45 -176.61 0 0 -769.45zm-275.54 467.84c0,45.3 12.14,80.47 36.18,105.52 24.29,25.05 58.45,37.44 102.48,37.44 43.77,0 77.67,-11.89 101.46,-35.67 23.78,-23.53 35.42,-57.19 35.42,-100.71l10.63 164.47c-14.93,40.23 -39.73,73.63 -74.14,100.96 -34.66,27.07 -76.92,40.73 -126.76,40.73 -83.75,0 -148.27,-27.07 -194.07,-80.71 -45.55,-53.9 -68.57,-130.06 -68.57,-228.48l0 -471.39 177.37 0 0 467.84z"/>
  <path id="_6" class="fil1" d="M5777.18 5956.7l-290.73 -435.2 196.6 0 202.42 327.67 296.3 441.78 -194.83 0 -209.76 -334.25zm-20.75 -90.58l96.4 139.42 -186.22 285.41 -192.05 0 281.87 -424.83zm62.25 -71.86l155.61 -272.76 195.84 0 -259.61 415.22 -91.84 -142.46z"/>
  <path id="_7" class="fil1" d="M6512.8 6603.69c-59.21,0 -112.34,-10.63 -159.4,-32.14 -46.81,-21.5 -83.5,-51.87 -109.56,-90.83l0 0 119.17 -109.06 0 0c18.98,22.78 41.24,40.49 66.8,53.14 25.81,12.65 52.63,18.98 80.71,18.98 50.61,0 90.33,-13.92 119.43,-41.75 29.1,-27.58 43.78,-66.04 43.78,-115.63l0 -764.9 177.11 0 0 746.42c0,70.6 -13.15,131.32 -39.72,181.68 -26.32,50.35 -64.78,88.81 -115.13,114.87 -50.35,26.31 -111.58,39.22 -183.19,39.22zm-25.05 -300.85c-55.41,0 -102.73,-12.65 -141.95,-37.95 -39.47,-25.05 -69.32,-61.99 -89.82,-110.32 -20.49,-48.33 -30.62,-106.52 -30.62,-174.33l0 -146.76c0,-68.06 10.13,-126.51 30.37,-175.09 20.24,-48.84 49.59,-85.78 88.56,-111.33 38.71,-25.56 85.27,-38.21 139.67,-38.21 43.52,0 83.24,12.14 118.92,36.44 35.93,24.03 64.77,58.19 86.53,102.22l-15.68 163.7c0,-29.6 -5.07,-54.65 -15.44,-75.4 -10.63,-20.74 -25.55,-36.69 -45.29,-47.57 -19.74,-10.88 -43.77,-16.19 -71.86,-16.19 -44.03,0 -78.18,14.17 -102.48,43.02 -24.03,28.59 -36.18,68.56 -36.18,119.93l0 145.24c0,51.11 12.15,90.33 36.18,117.9 24.3,27.84 58.45,41.5 102.48,41.5 28.09,0 52.12,-5.31 71.86,-16.19 19.74,-10.88 34.66,-26.82 45.29,-47.57 10.37,-20.75 15.44,-45.55 15.44,-74.9l10.37 169.02c-15.44,40.24 -39.98,72.37 -73.63,96.41 -33.91,24.29 -74.9,36.43 -122.72,36.43z"/>
  <path id="_8" class="fil1" d="M7430.85 5803.12c0,-43.02 -12.9,-76.16 -38.21,-99.95 -25.55,-23.78 -61.48,-35.67 -107.78,-35.67 -29.86,0 -58.96,4.8 -87.55,14.17 -28.59,9.36 -54.15,22.52 -76.41,39.21l-118.67 -99.43c30.36,-34.92 69.83,-62.25 118.67,-81.73 48.83,-19.48 103.23,-29.35 163.2,-29.35 65.53,0 121.7,11.13 168.26,33.65 46.3,22.52 81.73,55.16 106.02,97.92 24.03,42.76 36.18,94.38 36.18,154.6l0 494.41 -163.71 0 0 -487.83zm-201.66 498.96c-88.56,0 -154.6,-19.73 -198.62,-58.95 -44.03,-39.22 -66.04,-98.93 -66.04,-178.89 0,-76.16 22.26,-133.34 66.79,-171.3 44.28,-38.21 111.08,-57.18 200.15,-57.18l205.96 0 10.37 137.9 -215.57 0c-35.17,0 -61.49,7.33 -78.69,22.26 -17.21,14.93 -26.07,37.45 -25.81,68.32 -0.26,31.88 11.13,55.67 33.65,71.1 22.52,15.18 56.68,23.02 102.73,23.02 56.17,0 98.17,-6.32 125.5,-18.72 27.58,-12.14 41.24,-31.63 41.24,-57.69l15.44 110.32c-8.35,24.29 -23.03,44.53 -44.03,60.98 -21,16.19 -46.3,28.34 -75.91,36.69 -29.85,8.09 -61.99,12.14 -97.16,12.14z"/>
  <path id="_9" class="fil1" d="M7922.56 6064.24c0,18.72 4.55,33.15 13.91,43.27 9.37,10.12 22.78,15.18 40.24,15.18l52.63 0 0 169.78 -96.41 0c-59.46,0 -105.51,-17.71 -138.4,-53.39 -32.9,-35.68 -49.34,-85.78 -49.34,-150.55l0 -875.47 177.37 0 0 851.18z"/>
  <path id="_10" class="fil1" d="M8328.23 6294.75c-64.77,0 -112.34,-17.21 -142.45,-51.62 -30.11,-34.41 -45.04,-85.02 -45.04,-152.32l0 -793.24 177.12 0 0 768.69c0,18.98 3.54,33.4 11.13,43.52 7.34,10.13 18.22,15.19 32.64,15.19l61.49 0 0 169.78 -94.89 0zm-266.94 -773.25l361.83 0 0 154.85 -361.83 0 0 -154.85z"/>
  <path id="_11" class="fil1" d="M8874.08 6302.08c-72.61,0 -134.6,-13.41 -185.97,-40.48 -51.62,-26.82 -90.83,-66.04 -117.91,-117.91 -27.32,-51.62 -40.74,-113.61 -40.74,-186.23l0 -86.78c0,-76.17 12.91,-141.19 38.72,-195.09 26.06,-53.89 63.76,-94.88 113.61,-122.97 49.59,-28.08 109.3,-42.25 178.88,-42.25 65.79,0 121.96,16.44 168.77,49.34 46.56,32.89 82.24,80.46 106.78,142.7 24.29,62.25 36.69,137.4 36.69,225.2l0 50.6 -522.75 0 0 -129.8 358.03 0 -0.76 -8.86c-4.81,-53.38 -19.99,-94.88 -45.04,-124.48 -25.3,-29.86 -59.21,-44.54 -101.72,-44.54 -52.88,0 -93.87,16.7 -122.97,50.1 -29.09,33.15 -43.77,80.46 -43.77,141.95l0 97.67c0,57.94 15.69,102.47 47.06,133.85 31.38,31.37 75.66,47.06 133.09,47.06 29.1,0 57.95,-5.31 86.29,-16.19 28.34,-10.88 54.14,-26.57 76.66,-46.81l0 0 115.64 109.05 0 0c-38.97,36.44 -82.74,64.77 -131.58,84.76 -48.58,19.99 -97.67,30.11 -147.01,30.11z"/>
  <path id="_12" class="fil1" d="M9301.27 5521.5l184.71 0 0 769.45 -184.71 0 0 -769.45zm428.62 197.87c-11.89,-12.91 -26.57,-22.52 -43.77,-29.35 -17.21,-6.58 -37.45,-9.87 -59.97,-9.87 -44.53,0 -78.94,13.15 -103.49,39.72 -24.54,26.32 -36.68,63.01 -36.68,110.07l-15.69 -174.34c22.77,-45.79 52.12,-81.47 87.55,-107.03 35.67,-25.55 74.89,-38.2 117.9,-38.2 33.66,0 64.02,5.06 91.09,15.18 27.33,10.12 50.86,25.05 71.36,44.78l-108.3 149.04z"/>
 </g>
</svg>
