<svg width="40" height="17" viewBox="0 0 40 17" fill="none" xmlns="http://www.w3.org/2000/svg">
<path d="M39.1904 12.2214C38.3785 12.754 37.2828 12.5598 36.7108 11.7818L32.0378 5.42167C31.2553 4.35641 30.0002 3.72492 28.6647 3.72492C26.9593 3.72492 25.3579 4.52968 24.3592 5.89033L18.9345 13.2739L18.6048 13.7228C17.0932 15.7812 14.6704 17 12.0904 17H11.7902H11.6673C9.11563 17 6.55459 16.0312 5.05951 13.9961L0.306153 7.21377C-0.237507 6.47414 -0.0201046 5.44725 0.666595 4.83554C1.73141 3.93891 2.99956 4.47968 3.63302 5.34258L7.91255 11.3132C8.81788 12.5447 10.2679 13.2739 11.8127 13.2739H12.3894C13.9211 13.0413 14.6314 12.5749 15.4693 11.7039L21.199 3.72608L21.2521 3.65166C22.8961 1.36181 25.5683 0 28.4177 0C31.0072 0 33.4394 1.22342 34.9558 3.28765L39.6572 9.68734C40.2587 10.5096 40.0472 11.6598 39.1904 12.2214Z" fill="url(#paint0_linear_601_50)"/>
<defs>
<linearGradient id="paint0_linear_601_50" x1="-0.0015909" y1="8.49995" x2="39.9994" y2="8.49995" gradientUnits="userSpaceOnUse">
<stop stop-color="#36C59E"/>
<stop offset="0.1039" stop-color="#35BEA1"/>
<stop offset="0.2588" stop-color="#32A9AA"/>
<stop offset="0.4457" stop-color="#2C88B8"/>
<stop offset="0.6576" stop-color="#255ACC"/>
<stop offset="0.8873" stop-color="#1C1FE5"/>
<stop offset="1" stop-color="#1700F2"/>
</linearGradient>
</defs>
</svg>
